<svg width="1069" height="86" viewBox="0 0 1069 86" fill="none" xmlns="http://www.w3.org/2000/svg">
<path d="M52.8313 73.4854C42.7297 55.9744 37.6789 47.1683 27.8804 29.4043C17.7788 43.6256 12.728 50.711 2.62641 64.8312L0 64.1226C10.8087 49.2939 16.213 41.7531 27.0217 26.5701L28.739 26.8738C39.4972 45.7513 44.851 55.2153 55.5587 73.8903L52.8313 73.4854Z" fill="black"/>
<path d="M101.875 79.5586L90.8641 59.3147C79.7524 58.1 74.1965 57.4421 63.0847 55.8732V75.2062L60.6099 74.5988V31.8842C73.5399 33.7061 80.0049 34.4653 92.9349 35.8823C101.572 36.7933 104.804 41.2976 104.804 47.4214V50.2049C104.904 51.5746 104.68 52.9485 104.152 54.2156C103.624 55.4828 102.805 56.6076 101.763 57.4993C100.721 58.391 99.4838 59.0245 98.152 59.3486C96.8202 59.6728 95.431 59.6785 94.0966 59.3653H93.44L104.451 79.8623L101.875 79.5586ZM102.531 47.1683C102.531 42.1073 99.8545 38.6659 93.0359 37.9573C81.0656 36.6415 75.0551 35.9329 63.0847 34.2628V53.5958C75.0551 55.2153 81.0656 55.9744 93.0359 57.2397C99.8545 57.9988 102.531 54.9622 102.531 49.9519V47.1683Z" fill="black"/>
<path d="M112.481 80.5202V37.8055C128.088 39.2226 135.917 39.7793 151.574 40.6397V42.7147C136.876 41.9049 129.553 41.3482 114.855 40.083V57.1385C128.896 58.3531 135.917 58.8592 149.907 59.669V61.6428C135.917 60.8836 128.896 60.3775 114.855 59.1629V78.7489C129.553 80.0141 136.876 80.5709 151.574 81.3806V83.3544C135.917 82.494 128.088 81.9373 112.481 80.5202Z" fill="black"/>
<path d="M211.578 85.2775V66.6531C200.87 56.936 195.567 51.9762 184.859 42.0567H187.99C198.092 51.2677 202.84 55.8226 212.739 64.7805C222.841 55.9744 227.892 51.5207 237.539 42.5122H240.67C230.013 52.2293 224.659 57.0878 213.951 66.6531V85.2775H211.578Z" fill="black"/>
<path d="M254.964 85.0751C246.327 85.0751 243.044 81.0769 243.044 74.9531V52.8366C243.044 46.7128 246.327 42.7146 254.964 42.3604C265.065 42.3604 270.116 42.0567 280.218 41.7024C288.855 41.3988 292.188 45.4476 292.188 51.8244V73.9409C292.188 80.0647 288.855 84.4171 280.218 84.6702C270.015 84.7714 264.964 84.9232 254.964 85.0751ZM254.964 83.1013C265.065 83.1013 270.116 82.747 280.218 82.4434C287.137 82.1903 289.814 78.7488 289.814 73.8397V51.6726C289.814 46.6116 287.137 43.5244 280.218 43.7774C270.116 44.0811 265.065 44.2329 254.964 44.4354C248.145 44.4354 245.418 47.8262 245.418 52.8366V75.0037C245.418 79.9129 248.145 83.2025 254.964 83.1013Z" fill="black"/>
<path d="M312.341 81.1781C322.19 80.7227 327.14 80.419 336.989 79.8117C343.808 79.3056 345.474 76.1172 345.474 71.0562V38.4634H347.848V70.9043C347.848 77.0281 346.03 81.33 337.393 81.8361C327.292 82.494 322.241 82.747 312.139 83.2531C303.502 83.658 300.219 79.6092 300.219 73.4854V40.9433L303.048 40.6903V73.1312C303.048 78.1922 305.472 81.4312 312.341 81.1781Z" fill="black"/>
<path d="M434.823 74.0928C424.721 58.9098 419.67 51.4196 409.872 36.2366C399.77 53.1403 394.719 61.5415 384.618 78.3946H382.042C392.75 60.9342 398.154 51.6726 409.114 33.6555H410.882L437.702 74.1434L434.823 74.0928Z" fill="black"/>
<path d="M513.059 43.0689L515.433 42.8159V56.9866C515.433 63.0598 510.888 66.6025 501.897 67.5135L484.876 69.1836C475.886 70.0946 471.34 67.4629 471.34 61.3391V37.0464C471.34 30.9226 475.886 27.3799 484.876 26.4689L514.625 23.4323V25.5073L484.876 28.5439C477.502 29.2524 473.764 32.0866 473.764 36.7933V60.9342C473.764 65.9952 477.502 67.7665 484.876 67.058L501.695 65.3372C509.12 64.5781 512.857 61.8452 512.857 57.0878L513.059 43.0689Z" fill="black"/>
<path d="M535.384 64.0214C526.747 64.9324 523.464 61.0861 523.464 54.9623V32.8458C523.464 26.722 526.747 22.2177 535.384 21.3068L560.638 18.7257C569.275 17.8653 572.609 21.7116 572.609 27.8354V49.9013C572.609 56.0757 569.275 60.58 560.638 61.4403L535.384 64.0214ZM535.384 62.0477L560.638 59.4666C567.558 58.758 570.235 55.1647 570.235 50.205V28.0885C570.235 23.0275 567.558 20.0921 560.638 20.8007L535.384 23.3818C528.566 24.0903 525.889 27.633 525.889 32.5927V54.7598C526.04 59.669 528.717 62.7562 535.384 62.0477Z" fill="black"/>
<path d="M592.761 58.2013C584.124 59.0616 580.892 55.2153 580.892 49.0915V26.975C580.892 20.8512 584.124 16.3469 592.761 15.4866L618.015 13.0067C626.652 12.1969 629.985 16.0939 629.985 22.2177V44.2836C629.985 50.458 626.652 54.9116 618.015 55.772L592.761 58.2013ZM592.761 56.2275L618.015 53.7476C624.884 53.0897 627.611 49.4964 627.611 44.5872V22.4201C627.611 17.3591 624.884 14.4238 618.015 15.0817L592.761 17.5616C585.942 18.2195 583.265 21.7622 583.265 26.722V48.8891C583.265 53.7982 585.892 56.8854 592.761 56.2275Z" fill="black"/>
<path d="M638.42 53.8488V11.0835C652.361 9.81825 659.331 9.21093 673.271 8.0469C683.979 7.18654 687.262 11.1341 687.262 19.5859V37.5018C687.262 45.4982 683.979 49.9012 673.271 50.8122C659.331 51.9256 652.361 52.5836 638.42 53.8488ZM684.938 19.7378C684.938 12.5512 682.211 9.61581 673.271 10.1219C660.29 11.1847 653.825 11.7414 640.845 12.9561V51.622C653.825 50.4073 660.29 49.8506 673.271 48.7878C682.211 48.0793 684.938 44.5366 684.938 37.6537V19.7378Z" fill="black"/>
<path d="M766.306 44.739L755.295 25.9628C744.184 26.5195 738.628 26.8231 727.516 27.5317V46.814H725.092V4.25115C738.022 3.4414 744.487 3.03652 757.417 2.4292C766.054 1.97371 769.337 6.07311 769.337 12.1969V14.9804C769.397 16.4006 769.157 17.8174 768.634 19.1387C768.111 20.4599 767.317 21.6561 766.302 22.6491C765.287 23.6422 764.075 24.4099 762.744 24.9024C761.413 25.3948 759.994 25.6009 758.579 25.5073H757.619L768.68 44.3847L766.306 44.739ZM766.963 12.2981C766.963 7.23713 764.235 4.14993 757.417 4.5042C745.447 5.06091 739.487 5.41518 727.516 6.17433V25.5073C739.487 24.7481 745.447 24.4445 757.417 23.8372C764.235 23.4829 766.963 20.092 766.963 15.1323V12.2981Z" fill="black"/>
<path d="M776.862 44.2836V1.56886C792.52 0.961543 800.349 0.708494 815.955 0.455444V2.47984C801.308 2.47984 793.934 2.98594 779.287 3.54264V20.4463C793.277 19.8896 800.298 19.6872 814.339 19.4341V21.4585C800.298 21.4585 793.277 21.914 779.287 22.4201V42.2086C793.934 41.6518 801.308 41.3988 815.955 41.1457V43.1701C800.349 43.4232 792.52 43.6762 776.862 44.2836Z" fill="black"/>
<path d="M872.929 43.2208L847.978 2.73293C837.876 18.7256 832.825 26.7726 822.724 42.9171H820.198C831.007 25.6592 836.361 17.0555 847.169 0H848.937C859.695 17.1567 865.049 25.7604 875.757 43.069L872.929 43.2208Z" fill="black"/>
<path d="M880.757 43.4232V0.708496C894.697 1.06276 901.667 1.31581 915.607 2.07496C926.365 2.68228 929.598 7.13595 929.598 15.5372V33.4531C929.598 41.5 926.365 45.397 915.607 44.8403C901.667 44.0811 894.697 43.7775 880.757 43.4232ZM927.275 15.3853C927.275 8.19875 924.547 4.65606 915.607 4.14996C902.627 3.44143 896.162 3.18838 883.181 2.83411V41.5C896.162 41.8543 902.627 42.1073 915.607 42.8159C924.547 43.322 927.275 40.1842 927.275 33.3012V15.3853Z" fill="black"/>
<path d="M938.286 46.2574V3.54266C953.893 4.70669 961.721 5.36462 977.379 7.08535V9.16035C962.681 7.54084 955.357 6.88291 940.66 5.7695V22.825C954.701 23.8878 961.721 24.5457 975.712 26.0134V28.0378C961.721 26.5195 954.701 25.9122 940.66 24.8494V44.4354C955.357 45.5488 962.681 46.2068 977.379 47.8263V49.8507C961.721 48.1299 953.893 47.4214 938.286 46.2574Z" fill="black"/>
<path d="M1026.42 56.3793L1015.21 35.6293C1004.1 34.0098 998.542 33.3013 987.43 31.9348V50.8123L985.056 50.5086V7.99634C997.986 9.51463 1004.45 10.375 1017.38 12.2982C1026.02 13.5634 1029.3 18.3207 1029.3 24.4445V27.2787C1029.3 34.1616 1024.25 36.6921 1018.54 35.8317H1017.79L1028.8 56.8854L1026.42 56.3793ZM1027.08 24.0903C1027.08 19.0293 1024.4 15.3854 1017.58 14.3732C1005.61 12.5512 999.602 11.7415 987.632 10.3244V29.6573C999.602 31.0744 1005.61 31.8842 1017.58 33.6555C1024.4 34.6677 1027.08 31.8336 1027.08 26.8738V24.0903Z" fill="black"/>
<path d="M1066.63 31.2263C1066.63 26.1653 1064 22.4201 1057.08 21.1043C1048.65 19.4848 1044.4 18.7256 1035.92 17.2579V15.3854C1044.4 16.8025 1048.65 17.5616 1057.08 19.1811C1065.52 20.8006 1069 25.7604 1069 31.8842V33.0482C1069 39.172 1065.72 42.6641 1057.08 40.994L1051.07 39.6781C1047.18 38.9696 1045.16 40.4372 1045.16 44.233V47.6744L1043.04 47.2696V43.8787C1043.04 38.8177 1045.72 36.6415 1051.37 37.7043L1057.08 38.7671C1063.9 40.083 1066.63 37.2994 1066.63 32.3903V31.2263ZM1042.94 59.1629V51.2677L1045.16 51.6726V59.5678L1042.94 59.1629Z" fill="black"/>
</svg>
