<svg width="250" height="54" viewBox="0 0 250 54" fill="none" xmlns="http://www.w3.org/2000/svg">
<g clip-path="url(#clip0_427_520)">
<path d="M75.1204 26.1794C71.4959 20.5454 69.6742 17.5969 66.0309 11.7939C62.2749 17.8786 60.5095 20.9022 56.8287 26.8179H55.8896C59.8147 20.4327 61.7866 17.2025 65.7116 10.7046H66.3501C70.2564 16.8833 72.2095 19.9632 76.1158 26.0479L75.1204 26.1794Z" fill="black"/>
<path d="M92.9611 24.7709L88.9609 17.9725C84.9044 18.3293 82.895 18.4983 78.8573 18.78V25.9352H77.9746V10.1412C82.6884 9.82196 85.0359 9.63416 89.7309 9.20222C92.886 8.92052 94.0691 10.3666 94.0691 12.639V13.6719C94.0892 14.2043 94.0031 14.7355 93.816 15.2344C93.6289 15.7333 93.3445 16.19 92.9792 16.578C92.614 16.966 92.1752 17.2774 91.6885 17.4942C91.2018 17.7111 90.6768 17.829 90.1441 17.841H89.8624L93.9001 24.677L92.9611 24.7709ZM93.2052 12.7141C93.2052 10.8361 92.2287 9.74684 89.7309 9.9722C85.3927 10.3666 83.2142 10.5544 78.8573 10.8549V18.0101C83.2142 17.7096 85.3927 17.5218 89.7309 17.1462C92.2287 16.9208 93.2052 15.6062 93.2052 13.747V12.7141Z" fill="black"/>
<path d="M96.811 24.4141V8.52613C102.445 7.96273 105.356 7.64347 111.046 7.00494V7.75615C105.694 8.37589 103.027 8.67637 97.6937 9.20221V15.5311C102.802 15.024 105.337 14.7423 110.445 14.1601V14.9113C105.337 15.4747 102.802 15.7752 97.6937 16.2823V23.5502C103.027 23.0243 105.694 22.7238 111.046 22.1041V22.8553C105.356 23.5126 102.501 23.8131 96.811 24.4141Z" fill="black"/>
<path d="M132.888 20.3012V13.3714L123.16 5.63401L124.305 5.50255L133.338 12.6577C136.944 8.90174 138.747 7.02373 142.372 3.36162L143.517 3.23016C139.63 7.23031 137.677 9.23978 133.789 13.2775V20.1885L132.888 20.3012Z" fill="black"/>
<path d="M148.663 18.5171C145.527 18.8552 144.325 17.4279 144.325 15.1555V6.96738C144.325 4.695 145.527 3.00479 148.663 2.66675C152.306 2.27237 154.147 2.10335 157.79 1.74653C160.926 1.46483 162.147 2.91089 162.147 5.18328V13.3902C162.147 15.6625 160.926 17.3152 157.79 17.6157C154.147 17.9537 152.306 18.1415 148.663 18.5171ZM148.663 17.7847C152.306 17.3903 154.147 17.2025 157.752 16.902C160.25 16.6579 161.227 15.3433 161.227 13.5216V5.2584C161.227 3.38039 160.25 2.27237 157.752 2.51651C154.109 2.85455 152.269 3.04235 148.625 3.43673C146.146 3.69966 145.17 5.01426 145.17 6.87348V15.024C145.207 16.902 146.184 18.0476 148.663 17.7847V17.7847Z" fill="black"/>
<path d="M169.546 15.8691C173.133 15.6062 174.936 15.4935 178.523 15.3057C181.002 15.1743 181.603 13.916 181.603 12.0944V0H182.467V12.0192C182.467 14.3104 181.81 15.7752 178.711 16.0382C174.955 16.226 173.227 16.3574 169.584 16.6203C166.391 16.902 165.265 15.3996 165.265 13.146V1.08924H166.129V13.146C166.072 14.9114 167.143 16.0569 169.546 15.8691Z" fill="black"/>
<path d="M19.2308 51.8142C15.6062 45.3914 13.7846 42.1237 10.1412 35.5131C6.38522 40.7903 4.61989 43.4007 0.939002 48.4901L0 48.2647C3.92503 42.8561 5.89694 40.0954 9.82197 34.4614L10.4605 34.5929C14.3667 41.6354 16.3199 45.1097 20.2261 51.9644L19.2308 51.8142Z" fill="black"/>
<path d="M47.7012 45.2599H48.5651V50.5371C48.5651 52.7907 46.9124 53.8987 43.6447 53.8048C41.2033 53.8048 39.8887 53.6734 37.5224 53.5231C34.2547 53.3541 32.6021 52.0583 32.6021 49.7671V40.7527C32.6021 38.4803 34.2547 37.4662 37.5224 37.654C41.8606 37.8981 44.0203 37.9733 48.3585 38.0296V38.7996C44.0203 38.7996 41.8606 38.6681 37.5224 38.424C34.8369 38.2737 33.4659 39.0625 33.4659 40.8278V49.8235C33.4659 51.6076 34.8369 52.6217 37.5224 52.7719C40.208 52.9222 41.2784 52.9597 43.6447 53.0349C46.011 53.11 47.7012 52.2649 47.7012 50.4996V45.2599Z" fill="black"/>
<path d="M55.8707 53.9551C52.7344 53.9551 51.5513 52.3963 51.5513 50.1991V41.9358C51.5513 39.6635 52.7344 38.1798 55.8707 38.1798C59.5328 38.1798 61.3545 38.1798 64.9978 37.9733C68.1528 37.8606 69.3548 39.3442 69.3548 41.6166V49.8047C69.3548 52.0959 68.1528 53.7109 64.9978 53.8236C61.3545 53.8612 59.5328 53.9175 55.8707 53.9551ZM55.8707 53.2039C59.5328 53.2039 61.3545 53.2039 64.9978 52.9973C67.5143 52.9973 68.4909 51.6076 68.4909 49.7859V41.5602C68.4909 39.6822 67.5143 38.5554 64.9978 38.6493C61.3545 38.7808 59.5328 38.8184 55.8707 38.8559C53.3917 38.8559 52.4152 40.0954 52.4152 41.9358V50.1615C52.4152 51.9832 53.3917 53.2227 55.8707 53.2039V53.2039Z" fill="black"/>
<path d="M76.7166 53.1288C73.5803 53.3354 72.3784 51.8329 72.3784 49.5606V41.3161C72.3784 39.025 73.5803 37.4287 76.7166 37.2221C80.3599 36.9779 82.2004 36.8465 85.8437 36.5272C88.98 36.2643 90.2007 37.7104 90.2007 39.9827V48.1896C90.2007 50.462 88.98 52.1334 85.8437 52.3963C82.2004 52.7532 80.3599 52.8846 76.7166 53.1288ZM76.7166 52.3776C80.3599 52.1522 82.2004 52.002 85.8437 51.7015C88.3415 51.4949 89.318 50.1615 89.318 48.3399V40.1142C89.318 38.2362 88.3415 37.147 85.8437 37.3535C82.2004 37.654 80.3599 37.8043 76.7166 38.0296C74.2376 38.1986 73.2423 39.4381 73.2423 41.3161V49.5418C73.2423 51.3634 74.2376 52.5841 76.7166 52.3776Z" fill="black"/>
<path d="M93.3179 51.7766V35.9262C98.3885 35.4379 100.924 35.175 105.994 34.6116C109.901 34.1797 111.103 35.5882 111.103 38.7244V45.3726C111.103 48.3398 109.901 50.03 105.994 50.462C100.924 51.0254 98.3885 51.2883 93.3179 51.7766ZM110.22 38.8183C110.22 36.1328 109.225 35.0623 105.976 35.3816C101.262 35.8887 98.8956 36.1516 94.1818 36.6023V50.9503C98.8956 50.4995 101.262 50.2366 105.976 49.7296C109.225 49.354 110.22 48.0018 110.22 45.4665V38.8183Z" fill="black"/>
<path d="M139.855 46.537L135.836 39.8325L125.826 41.0156V48.1708L124.962 48.2835V32.4331L136.719 31.0434C139.855 30.6866 141.057 32.1139 141.057 34.3863V35.4192C141.092 36.507 140.695 37.5645 139.953 38.36C139.21 39.1556 138.182 39.6243 137.094 39.6635H136.813L140.85 46.4243L139.855 46.537ZM140.08 34.4802C140.08 32.6022 139.104 31.5317 136.625 31.8134L125.732 33.0904V40.2456L136.625 38.9686C139.104 38.6869 140.08 37.3535 140.08 35.5131V34.4802Z" fill="black"/>
<path d="M143.705 46.105V30.2359C149.339 29.6161 152.231 29.3157 157.922 28.7898V29.541C152.588 30.0481 149.921 30.3298 144.569 30.912V37.2408C149.677 36.6774 152.231 36.4145 157.339 35.9262V36.6774C152.231 37.1657 149.677 37.4286 144.569 37.992V45.2599C149.921 44.6777 152.588 44.396 157.922 43.889V44.6402C152.231 45.166 149.395 45.4665 143.705 46.105Z" fill="black"/>
<path d="M178.655 43.0814C175.03 37.3347 173.208 34.4802 169.565 28.7898C165.809 35.006 164.044 38.1798 160.363 44.4148L159.424 44.5087C163.386 37.8042 165.264 34.4614 169.246 27.832H169.884C173.791 33.898 175.744 36.9404 179.65 43.0814H178.655Z" fill="black"/>
<path d="M181.509 42.95V27.0808C186.58 26.8555 189.021 26.7803 194.186 26.724C198.092 26.724 199.275 28.2827 199.275 31.4002V38.0484C199.275 41.0156 198.092 42.5368 194.186 42.5744C189.115 42.6307 186.58 42.7058 181.509 42.95ZM198.411 31.4002C198.411 28.7147 197.416 27.4564 194.167 27.494C189.453 27.494 187.087 27.6067 182.354 27.8132V42.1612C187.087 41.9546 189.453 41.8795 194.167 41.8419C197.416 41.8419 198.411 40.5837 198.411 38.0859V31.4002Z" fill="black"/>
<path d="M202.43 42.6119V26.7616C208.064 26.8555 210.975 26.9869 216.647 27.4001V28.1701C211.313 27.7945 208.646 27.6818 203.294 27.5691V33.8041C208.402 33.898 210.956 34.0107 216.064 34.3675V35.1187C210.956 34.7619 208.402 34.6492 203.294 34.5365V41.8232C208.646 41.9171 211.313 42.0485 216.647 42.4241V43.1941C210.975 42.8373 208.121 42.7246 202.43 42.6119Z" fill="black"/>
<path d="M234.525 45.2599L230.506 37.5601C226.468 37.0155 224.44 36.8089 220.402 36.4521V43.6073H219.539V27.6255C224.234 28.0198 226.581 28.264 231.295 28.9213C234.431 29.3532 235.614 31.1185 235.614 33.3909V34.4426C235.659 34.939 235.581 35.4386 235.389 35.8982C235.196 36.3579 234.894 36.7635 234.509 37.08C234.124 37.3964 233.668 37.6141 233.18 37.7142C232.692 37.8142 232.186 37.7936 231.708 37.654H231.445L235.445 45.4289L234.525 45.2599ZM234.75 33.2595C234.75 31.3815 233.774 30.0293 231.295 29.6913C226.938 29.0903 224.759 28.8462 220.402 28.4518V35.6821C224.759 36.0577 226.938 36.3018 231.295 36.9028C233.774 37.2596 234.75 36.2079 234.75 34.3487V33.2595Z" fill="black"/>
<path d="M249.136 36.0389C249.139 35.0927 248.785 34.1802 248.144 33.4838C247.504 32.7875 246.624 32.3586 245.681 32.2829C242.582 31.6256 241.042 31.3251 237.962 30.7993V30.0481C241.042 30.5739 242.582 30.8744 245.681 31.5317C246.879 31.6274 247.995 32.1795 248.799 33.074C249.603 33.9685 250.033 35.1373 250 36.3394V36.7525C250 39.0437 248.817 40.2832 245.681 39.6071L243.483 39.1564C242.056 38.8747 241.324 39.4193 241.324 40.8278V42.1049L240.554 41.9546V40.6964C240.554 38.8183 241.53 38.0108 243.596 38.424L245.681 38.8559C248.16 39.3818 249.136 38.3864 249.136 36.5647V36.0389ZM240.516 46.274V43.3443L241.324 43.4946V46.4243L240.516 46.274Z" fill="black"/>
</g>
<defs>
<clipPath id="clip0_427_520">
<rect width="250" height="53.9551" fill="white"/>
</clipPath>
</defs>
</svg>
