<svg width="1001" height="70" viewBox="0 0 1001 70" fill="none" xmlns="http://www.w3.org/2000/svg">
<path d="M45.0431 60.1631C38.0023 47.7063 34.4819 41.4778 27.4411 28.8855C20.2649 39.537 16.6542 44.8177 9.3877 55.3338L0 53.8443C9.70369 40.3043 14.5329 33.2635 24.1915 19.3624L30.4199 20.22C40.0333 36.7388 44.8175 44.9531 54.4309 61.2914L45.0431 60.1631Z" fill="#1F1F1F"/>
<path d="M91.4399 64.8565C88.1903 57.8157 86.5656 54.2953 83.3611 47.2093C76.4106 46.6226 72.9352 46.2616 66.0298 45.5846V62.5097L57.5898 61.6069V23.5143C70.2272 24.9134 76.5459 25.5002 89.1833 26.5383C97.6232 27.2604 100.873 31.0516 100.873 36.6933V39.4464C100.873 43.9597 98.8419 47.4803 92.3427 47.8865L100.467 65.5337L91.4399 64.8565ZM92.4329 35.926C92.4329 34.3914 91.3045 33.6242 89.1833 33.4437C80.1566 32.6764 75.2821 32.225 66.0298 31.2772V38.6792C75.2821 39.627 79.9309 40.0784 89.1833 40.8457C91.3948 40.8457 92.4329 40.8456 92.4329 38.8598V35.926Z" fill="#1F1F1F"/>
<path d="M106.062 65.9401V27.6669C121.408 28.7501 129.035 29.1563 144.336 29.7881V36.6936C132.42 36.1971 126.282 35.8811 114.502 35.1139V42.7414C125.786 43.4636 131.427 43.7344 142.756 44.2309V51.1814C131.427 50.6849 125.786 50.369 114.502 49.6468V59.3957C126.418 60.163 132.556 60.4789 144.336 60.9754V68.287C129.035 67.4294 121.408 67.0233 106.062 65.9401Z" fill="#1F1F1F"/>
<path d="M195.515 69.3699V54.2954C186.217 44.9979 181.569 40.304 172.316 30.9163H183.013C189.693 37.6863 193.033 41.0713 199.712 47.7511L216.322 31.1419H226.928C217.901 40.4394 213.117 45.043 203.91 54.2051V69.3249L195.515 69.3699Z" fill="#1F1F1F"/>
<path d="M239.02 69.2349C230.58 69.2349 227.375 65.6694 227.375 60.2082V40.5301C227.375 35.0689 230.58 31.5034 239.02 31.1874C248.859 31.1874 253.778 30.9167 263.617 30.691C272.102 30.4654 275.307 34.076 275.307 39.7177V59.2605C275.307 64.7667 272.102 68.6031 263.617 68.8287C253.778 69.0093 248.859 69.0995 239.02 69.2349ZM266.912 39.6274C266.912 38.138 265.738 37.461 263.617 37.5061C253.778 37.7769 248.859 37.8672 239.02 38.0026C236.898 38.0026 235.77 38.7699 235.77 40.2593V60.1632C235.77 61.6977 236.898 62.3295 239.02 62.3295C248.859 62.3295 253.778 62.0587 263.617 61.7879C265.738 61.7879 266.912 61.0657 266.912 59.4861V39.6274Z" fill="#1F1F1F"/>
<path d="M319.542 28.4791L327.937 28.0277V56.9583C327.937 62.4194 324.732 66.3461 316.292 66.7523C306.995 67.2036 302.391 67.3842 293.094 67.7452C284.654 68.1063 281.449 64.4505 281.449 58.9893V30.1039L289.844 29.788V58.7185C289.844 60.2982 291.018 60.9301 293.094 60.8398C302.391 60.4788 306.995 60.253 316.292 59.8017C318.414 59.8017 319.542 58.9893 319.542 57.4548V28.4791Z" fill="#1F1F1F"/>
<path d="M401.422 61.5171L383.82 33.76L365.767 63.9543L356.379 64.5411C366.083 48.6992 370.912 40.7557 380.57 24.8687L386.799 24.4625L410.81 60.8401L401.422 61.5171Z" fill="#1F1F1F"/>
<path d="M451.474 57.7261C443.982 58.3128 439.559 55.9207 439.559 49.9179V30.1044C439.559 23.3344 444.072 20.2201 451.474 19.6334L481.939 17.1962V24.0565L451.384 26.4936C448.766 26.7193 447.953 27.8026 447.953 29.4274V49.1958C447.953 50.64 449.533 50.956 451.384 50.8206L470.656 49.2861C472.506 49.2861 474.041 48.609 474.041 47.2099V35.1593L482.526 34.4824V46.5329C482.526 53.3029 478.735 55.5597 470.656 56.1915L451.474 57.7261Z" fill="#1F1F1F"/>
<path d="M500.074 53.844C491.634 54.521 488.43 51.0458 488.43 45.5847V25.8614C488.43 20.4002 491.634 16.4284 500.074 15.7514L524.717 13.7204C533.157 13.0434 536.361 16.5187 536.361 22.025V41.7031C536.361 47.1643 533.157 51.1811 524.717 51.8581L500.074 53.844ZM527.967 22.5666C527.967 21.0772 526.838 20.4453 524.717 20.6259L500.074 22.6117C497.998 22.6117 496.87 23.5595 496.87 25.094V44.9527C496.87 46.5324 497.998 47.0741 500.074 46.8936L524.717 44.9077C526.838 44.9077 527.967 44.0049 527.967 42.4253V22.5666Z" fill="#1F1F1F"/>
<path d="M553.738 49.5111C545.298 50.1881 542.094 46.7129 542.094 41.2518V21.5285C542.094 16.0673 545.298 12.0955 553.738 11.4185L578.381 9.52295C586.821 8.89108 590.025 12.4114 590.025 17.8725V37.5508C590.025 43.0119 586.821 46.9837 578.381 47.6156L553.738 49.5111ZM581.631 18.3691C581.631 16.8797 580.457 16.2478 578.381 16.3832L553.738 18.2789C551.617 18.2789 550.489 19.2266 550.489 20.7611V40.6198C550.489 42.1995 551.617 42.7411 553.738 42.6057L578.381 40.7102C580.457 40.7102 581.631 39.8074 581.631 38.2278V18.3691Z" fill="#1F1F1F"/>
<path d="M596.219 46.3067V8.21409C609.759 7.22115 616.664 6.76987 630.295 5.8672C640.811 5.1902 643.835 8.75568 643.835 16.2478V32.1799C643.835 39.311 640.63 43.2377 630.295 43.9147C616.664 44.8625 609.849 45.3138 596.219 46.3067ZM635.575 16.7894C635.575 13.0433 634.492 12.2761 630.295 12.7274L604.614 14.4876V38.7694L630.295 37.0543C634.492 36.7835 635.575 36.0614 635.575 32.5409V16.7894Z" fill="#1F1F1F"/>
<path d="M709.771 39.8075C706.567 33.1278 704.942 29.8331 701.692 23.1984L684.361 23.9656V40.8907L676.102 41.2066V3.06881C688.694 2.43695 695.012 2.12102 707.695 1.66969C716.18 1.30862 719.43 4.96444 719.43 10.4256V13.1788C719.528 15.5584 718.682 17.8802 717.075 19.6386C715.469 21.397 713.233 22.4494 710.854 22.5665C714.104 29.2914 715.729 32.6313 719.024 39.3562L709.771 39.8075ZM710.764 10.7416C710.764 9.25215 709.636 8.57519 707.514 8.66546C698.488 9.02652 693.613 9.20706 684.361 9.6584V17.1054C693.613 16.6541 698.262 16.4283 707.514 16.0673C709.726 16.0673 710.764 15.5257 710.764 13.6752V10.7416Z" fill="#1F1F1F"/>
<path d="M724.445 39.2664V1.17372C739.746 0.677252 747.373 0.496663 762.719 0.270996V7.17641C750.758 7.17641 744.665 7.44728 732.84 7.80834V15.4359C744.124 15.12 749.81 14.9845 761.094 14.804V21.7546C749.81 21.7546 744.124 22.0254 732.84 22.3413V32.1804C744.801 31.8644 750.894 31.729 762.719 31.5484V38.499C747.373 38.5893 739.746 38.815 724.445 39.2664Z" fill="#1F1F1F"/>
<path d="M809.789 38.3634C802.748 26.6287 799.228 20.8066 792.187 9.20726L774.134 38.2732H764.746L788.938 0H795.121C804.734 15.2551 809.564 22.9278 819.177 38.3634H809.789Z" fill="#1F1F1F"/>
<path d="M822.328 38.5439V0.58667C835.868 0.857471 842.774 1.03805 856.449 1.62479C866.965 2.07612 869.989 6.13806 869.989 13.54V29.5172C869.989 36.6483 866.785 40.1687 856.449 39.7625C842.774 39.0403 835.958 38.8147 822.328 38.5439ZM861.684 12.9984C861.684 9.25229 860.601 8.48502 856.449 8.48502C846.159 8.03369 841.013 7.8531 830.723 7.5823V31.9093C841.013 32.1801 846.159 32.3155 856.449 32.7668C860.601 32.7668 861.684 32.3606 861.684 28.9305V12.9984Z" fill="#1F1F1F"/>
<path d="M876.258 40.5751V2.48254C891.603 3.34008 899.231 3.88157 914.531 5.19044V12.0959C902.616 11.0578 896.478 10.6065 884.698 9.83918V17.5119C895.981 18.1889 901.668 18.6402 912.951 19.588V26.4934C901.668 25.5456 895.981 25.1395 884.698 24.4173V34.1662C896.613 34.9334 902.751 35.3396 914.531 36.3777V43.3283C899.231 42.0194 891.603 41.4777 876.258 40.5751Z" fill="#1F1F1F"/>
<path d="M953.901 47.3448C950.651 40.2137 949.027 36.603 945.822 29.2914L928.491 27.4861V44.4111L920.051 43.6439V5.5061C932.688 6.67957 939.007 7.31149 951.644 8.8009C960.084 9.79383 963.334 13.9912 963.334 19.4523V22.2055C963.334 26.7189 961.258 30.1039 954.804 30.2393L962.928 48.2927L953.901 47.3448ZM954.894 18.4594C954.894 16.97 953.765 16.1125 951.644 15.8417C942.347 14.7585 937.743 14.262 928.491 13.3593V20.7612C937.743 21.6639 942.347 22.1604 951.644 23.2887C953.856 23.5144 954.894 23.2886 954.894 21.393V18.4594Z" fill="#1F1F1F"/>
<path d="M999.932 27.6665C999.932 33.1276 996.683 36.287 988.243 35.0233L982.511 34.1657C979.577 33.7595 978.223 34.7073 978.223 36.6029V40.0782L971.047 39.0852V35.655C971.047 29.878 974.567 26.1319 983.91 27.5311L988.423 28.1629C990.59 28.4788 991.673 28.1629 991.673 26.3576V23.6045C991.673 22.1151 990.5 21.2124 988.423 20.8965C980.119 19.6327 976.012 19.046 967.707 17.9628V10.967C976.012 12.0502 980.119 12.6371 988.423 13.9008C996.728 15.1646 1000.11 19.4523 1000.11 24.9134L999.932 27.6665ZM971.092 49.6916V42.6508L978.223 43.6438V50.6846L971.092 49.6916Z" fill="#1F1F1F"/>
</svg>
