<svg xmlns="http://www.w3.org/2000/svg" xmlns:xlink="http://www.w3.org/1999/xlink" viewBox="0 0 943 327.4"><defs><style>.cls-1,.cls-4{fill:none;}.cls-2{clip-path:url(#clip-path);}.cls-3{fill:url(#radial-gradient);}.cls-4{stroke:#ed9e97;stroke-opacity:0.1;stroke-width:40px;}.cls-5{fill:url(#radial-gradient-2);}.cls-6{fill:url(#radial-gradient-3);}.cls-7{fill:url(#radial-gradient-4);}.cls-8{fill:url(#radial-gradient-5);}.cls-9{fill:url(#radial-gradient-6);}.cls-10{fill:#e99a97;stroke:#e99a97;stroke-miterlimit:10;}</style><clipPath id="clip-path"><rect class="cls-1" x="-5.9" width="948.9" height="327.4"/></clipPath><radialGradient id="radial-gradient" cx="-487.48" cy="729.01" r="0.68" gradientTransform="matrix(0, 471.5, 471.5, 0, -343268.5, 230211.5)" gradientUnits="userSpaceOnUse"><stop offset="0" stop-color="#ee7369"/><stop offset="1" stop-color="#e99a97" stop-opacity="0"/></radialGradient><radialGradient id="radial-gradient-2" cx="-487.35" cy="729.25" r="0.68" gradientTransform="matrix(0, 381.5, 381.5, 0, -277748.5, 186291.5)" xlink:href="#radial-gradient"/><radialGradient id="radial-gradient-3" cx="-486.99" cy="729.95" r="0.68" gradientTransform="matrix(0, 245, 245, 0, -178377, 119680)" gradientUnits="userSpaceOnUse"><stop offset="0" stop-color="#e188ab"/><stop offset="1" stop-color="#e188ab" stop-opacity="0"/></radialGradient><radialGradient id="radial-gradient-4" cx="-486.99" cy="729.95" r="0.68" gradientTransform="matrix(0, 245, 245, 0, -178377, 119680)" gradientUnits="userSpaceOnUse"><stop offset="0" stop-color="#964e7c"/><stop offset="1" stop-color="#e188ab" stop-opacity="0"/></radialGradient><radialGradient id="radial-gradient-5" cx="-487.06" cy="729.82" r="0.68" gradientTransform="matrix(0, 262.5, 262.5, 0, -191116.5, 128219.5)" gradientUnits="userSpaceOnUse"><stop offset="0" stop-color="#ededed"/><stop offset="1" stop-color="#e188ab" stop-opacity="0"/></radialGradient><radialGradient id="radial-gradient-6" cx="-482.48" cy="726.63" r="0.68" gradientTransform="matrix(92, 22, 22, -92, 28863.53, 77831.52)" gradientUnits="userSpaceOnUse"><stop offset="0" stop-color="#9c0002"/><stop offset="1" stop-color="#9c0002" stop-opacity="0"/></radialGradient></defs><g id="Layer_1" data-name="Layer 1"><g class="cls-2"><circle class="cls-3" cx="461.12" cy="366.8" r="319.5"/><circle class="cls-4" cx="461.12" cy="366.8" r="244.96"/><circle class="cls-5" cx="461.12" cy="366.8" r="258.51"/><circle class="cls-6" cx="460.78" cy="367.14" r="166.02"/><circle class="cls-7" cx="460.78" cy="367.14" r="166.02"/><circle class="cls-8" cx="461.12" cy="366.8" r="177.88"/><circle class="cls-9" cx="461.12" cy="366.8" r="113.5"/><rect class="cls-1" x="255.46" y="161.14" width="409.96" height="409.96"/><line class="cls-10" x1="462.47" y1="237.14" x2="462.47" y2="288.14"/><line class="cls-10" x1="448.88" y1="237.85" x2="454.21" y2="288.57"/><line class="cls-10" x1="435.44" y1="239.98" x2="446.05" y2="289.87"/><line class="cls-10" x1="422.3" y1="243.5" x2="438.06" y2="292.01"/><line class="cls-10" x1="409.59" y1="248.38" x2="430.34" y2="294.97"/><line class="cls-10" x1="397.47" y1="254.56" x2="422.97" y2="298.73"/><line class="cls-10" x1="386.06" y1="261.97" x2="416.04" y2="303.23"/><line class="cls-10" x1="375.48" y1="270.53" x2="409.61" y2="308.43"/><line class="cls-10" x1="365.86" y1="280.15" x2="403.76" y2="314.28"/><line class="cls-10" x1="357.3" y1="290.73" x2="398.56" y2="320.71"/><line class="cls-10" x1="349.89" y1="302.14" x2="394.05" y2="327.64"/><line class="cls-10" x1="343.71" y1="314.27" x2="390.3" y2="335.01"/><line class="cls-10" x1="338.83" y1="326.97" x2="387.34" y2="342.73"/><line class="cls-10" x1="586.11" y1="326.97" x2="537.6" y2="342.73"/><line class="cls-10" x1="581.23" y1="314.27" x2="534.64" y2="335.01"/><line class="cls-10" x1="575.05" y1="302.14" x2="530.89" y2="327.64"/><line class="cls-10" x1="567.64" y1="290.73" x2="526.38" y2="320.71"/><line class="cls-10" x1="559.08" y1="280.15" x2="521.18" y2="314.28"/><line class="cls-10" x1="549.46" y1="270.53" x2="515.33" y2="308.43"/><line class="cls-10" x1="538.88" y1="261.97" x2="508.91" y2="303.23"/><line class="cls-10" x1="527.47" y1="254.56" x2="501.97" y2="298.73"/><line class="cls-10" x1="515.35" y1="248.38" x2="494.6" y2="294.97"/><line class="cls-10" x1="502.64" y1="243.5" x2="486.88" y2="292.01"/><line class="cls-10" x1="489.5" y1="239.98" x2="478.9" y2="289.87"/><line class="cls-10" x1="476.06" y1="237.85" x2="470.73" y2="288.57"/></g></g></svg>