<svg width="1242" height="104" viewBox="0 0 1242 104" fill="none" xmlns="http://www.w3.org/2000/svg">
<g clip-path="url(#clip0_502_508)">
<path d="M55.6732 59.1451L58.913 59.6744V78.0001C58.913 85.939 52.83 89.0484 40.73 87.0636C31.7377 85.6082 27.1754 84.8143 18.183 83.1604C6.14917 80.911 0 75.6183 0 67.6132V35.8576C0 27.8525 6.14917 25.0738 18.183 27.3232C34.1841 30.2341 42.1185 31.5573 57.8551 33.939V36.6515C41.854 34.2698 33.9196 32.9466 18.183 30.0357C8.26501 28.2494 3.24002 30.3665 3.24002 36.6515V68.3411C3.24002 74.6261 8.26501 78.8601 18.183 80.6463C28.101 82.4326 31.7377 83.1604 40.73 84.6158C49.7223 86.0713 55.6732 83.8882 55.6732 77.6693V59.1451Z" fill="#9C0002"/>
<path d="M85.8903 93.8119C74.3193 92.3564 69.8892 86.2036 69.8892 78.1985V49.3539C69.8892 41.2826 74.3193 36.5192 85.8903 37.9085C99.1143 39.6286 106.123 40.3563 119.545 41.6133C131.183 42.738 135.613 48.5599 135.613 56.565V85.4759C135.613 93.481 131.183 98.7075 119.545 97.5167C106.123 96.1935 99.3788 95.4658 85.8903 93.8119ZM85.8903 91.1654C99.1143 92.8194 106.123 93.6132 119.545 94.8702C128.802 95.7964 132.439 91.6948 132.439 85.2775V56.3003C132.439 49.6846 128.802 45.252 119.545 44.3258C106.321 43.0688 99.3788 42.2749 85.8903 40.621C76.6996 39.4963 73.129 43.2673 73.129 49.7508V78.7277C73.129 85.145 76.6996 90.0408 85.8903 91.2316V91.1654Z" fill="#9C0002"/>
<path d="M162.788 100.957C151.15 100.229 146.787 94.3411 146.787 86.3361V57.4912C146.787 49.4861 151.15 44.2596 162.788 45.1197C176.012 45.9797 182.954 46.3106 196.443 46.8399C208.08 47.3691 212.51 52.9264 212.51 60.9315V89.7762C212.51 97.8474 208.08 103.008 196.443 103.008C182.954 102.148 176.276 101.817 162.788 100.957ZM162.788 98.3766C176.012 99.2367 182.954 99.5675 196.443 100.097C205.7 100.494 209.336 96.1935 209.336 89.7762V60.7991C209.336 54.1833 205.7 49.9493 196.443 49.5524C183.219 49.0231 176.276 48.6922 162.788 47.8322C153.597 47.2368 150.026 51.2062 150.026 57.6896V86.6668C150.026 93.0841 153.597 97.8473 162.788 98.3766Z" fill="#9C0002"/>
<path d="M224.081 103.603V47.7659C242.793 48.1628 252.116 48.229 270.828 48.1628C285.242 48.1628 289.606 53.4554 289.606 64.5038V87.8575C289.606 98.3765 285.242 103.934 270.828 104C252.116 104.463 242.793 104 224.081 103.603ZM286.234 64.7685C286.234 55.3079 282.531 51.0738 270.563 51.14C253.174 51.14 244.446 51.14 226.99 50.743V101.287C244.446 101.684 253.438 101.751 270.563 101.684C282.531 101.684 286.234 97.1857 286.234 88.4529V64.7685Z" fill="#9C0002"/>
<path d="M395.729 99.6335L380.918 75.2875C366.041 76.0814 358.569 76.4783 343.692 77.0737V102.28H340.453V46.4428C357.776 45.7812 366.504 45.3181 383.827 44.3257C395.465 43.6641 399.828 48.8906 399.828 56.8957V60.5343C399.865 62.4321 399.516 64.3177 398.803 66.0767C398.09 67.8358 397.027 69.4318 395.68 70.7678C394.332 72.1039 392.727 73.1523 390.963 73.8496C389.198 74.5469 387.311 74.8784 385.414 74.8244H384.356C390.307 84.6157 393.282 89.4452 399.167 99.2366L395.729 99.6335ZM396.589 57.2264C396.589 50.6106 393.018 46.6412 383.827 47.1705C367.76 48.0967 359.76 48.4937 343.692 49.1553V74.3614C359.76 73.6998 367.76 73.3028 383.827 72.4428C393.018 71.9135 396.589 67.3486 396.589 60.8652V57.2264Z" fill="#9C0002"/>
<path d="M409.944 98.7074V42.8703C430.971 41.481 441.484 40.6871 462.444 38.967V41.6795C442.608 43.2673 432.888 44.0611 413.184 45.3843V67.6794C432.029 66.4224 441.418 65.6947 460.262 64.1731V66.7531C441.418 68.2747 432.029 69.0025 413.184 70.2595V95.9287C433.02 94.6056 442.74 93.8117 462.444 92.2239V94.8702C441.484 96.5241 430.971 97.3181 409.944 98.7074Z" fill="#9C0002"/>
<path d="M538.945 87.9899L505.422 38.7685L471.37 94.0763L467.866 94.4072C482.412 70.8551 489.685 59.0127 504.166 35.3944H506.48L542.515 87.8575L538.945 87.9899Z" fill="#9C0002"/>
<path d="M549.458 86.9974V31.1604L596.205 26.4631C610.619 25.0076 615.049 30.0357 615.049 41.0841V64.7685C615.049 75.2214 610.619 81.1757 596.205 82.6311L549.458 86.9974ZM611.875 41.4148C611.875 31.9542 608.239 28.1832 596.205 29.1755L552.698 33.542V84.0866L596.205 79.7202C608.239 78.5293 611.875 73.766 611.875 64.8347V41.4148Z" fill="#9C0002"/>
<path d="M627.017 79.257V23.3536L630.257 23.0229V78.9263L627.017 79.257Z" fill="#9C0002"/>
<path d="M708.411 71.3842C683.219 52.9923 670.59 43.8625 645.398 25.6029V77.603H642.555V21.7659L645.398 21.4352L707.287 66.6208V15.3486H710.064V71.1857L708.411 71.3842Z" fill="#9C0002"/>
<path d="M777.308 34.5343H780.548V53.1246C780.548 61.0636 774.399 65.4961 762.365 66.3562L739.818 68.341C727.718 69.3996 721.635 65.9593 721.635 57.9542V26.1986C721.635 18.1935 727.718 13.5623 739.818 12.4376C755.819 11.0483 763.753 10.3205 779.49 9.06354V11.71C763.489 13.0332 755.554 13.6947 739.818 15.1501C729.834 16.0763 724.875 19.715 724.875 25.8677V57.6235C724.875 63.9085 729.834 66.621 739.818 65.6948L762.365 63.7099C772.349 62.8499 777.308 59.4097 777.308 53.1909V34.5343Z" fill="#9C0002"/>
<path d="M857.974 59.3434V6.41724C845.941 7.07882 839.924 7.47575 827.824 8.26965V5.22645C852.751 3.5725 865.248 2.84477 890.175 1.72009V4.43259C878.538 4.96185 872.719 5.22649 861.148 5.88806V58.8143L857.974 59.3434Z" fill="#9C0002"/>
<path d="M912.523 56.8294C900.952 57.2264 896.588 52 896.588 43.9288V15.0839C896.588 7.07881 900.952 1.38921 912.523 0.992267C925.747 0.529162 932.756 0.330859 946.245 0.132385C957.816 0.132385 962.312 5.35885 962.312 13.3639V42.2748C962.312 50.2799 957.816 55.5064 946.245 55.9696C932.756 56.2342 926.012 56.3663 912.523 56.8294ZM912.523 54.2494C925.747 53.7863 932.756 53.5877 946.245 53.3231C955.435 53.3231 959.072 48.8243 959.072 42.3409V13.43C959.072 6.81418 955.435 2.64634 946.245 2.77866C933.021 2.77866 926.012 3.24165 912.523 3.70476C903.399 3.70476 899.762 8.4682 899.762 14.9517V43.9288C899.762 50.3461 903.399 54.514 912.523 54.2494Z" fill="#9C0002"/>
<path d="M1043.77 56.8956V32.5496C1029.42 19.3181 1022.28 12.7022 1007.94 -6.10352e-05H1012.17C1025.39 11.9083 1032 17.8627 1045.23 30.1018C1058.45 18.9873 1065.06 13.4961 1078.29 2.71243H1082.52C1068.17 14.3562 1060.96 20.2442 1046.62 32.285V56.631L1043.77 56.8956Z" fill="#9C0002"/>
<path d="M1102.02 60.4021C1090.45 59.4097 1086.09 53.7863 1086.09 45.715V16.8041C1086.09 8.79904 1090.45 3.57267 1102.02 4.49888C1115.25 5.62356 1122.26 6.21885 1135.74 7.67432C1147.32 8.93132 1151.75 15.0179 1151.75 23.023V51.8677C1151.75 59.8727 1147.32 64.7685 1135.74 63.5115C1122.26 62.1222 1115.51 61.4606 1102.02 60.4021ZM1102.02 57.7558C1115.25 58.8143 1122.26 59.476 1135.74 60.9314C1144.94 61.9238 1148.57 58.0205 1148.57 51.6032V22.626C1148.57 16.0103 1144.94 11.3792 1135.74 10.3868C1122.52 8.93135 1115.51 8.2697 1102.02 7.21117C1092.9 6.48344 1089.26 10.5191 1089.26 17.0026V45.9797C1089.26 52.397 1092.9 57.0281 1102.02 57.7558Z" fill="#9C0002"/>
<path d="M1178.86 66.3562C1192.08 68.2748 1198.69 69.3334 1211.92 71.6489C1221.04 73.2367 1223.22 69.2671 1223.22 62.8498V20.4427L1226.46 21.0383V63.3792C1226.46 71.3843 1224.02 76.6108 1212.44 74.3614C1199.22 71.9797 1192.21 70.9212 1178.72 69.0027C1167.15 67.2826 1162.79 61.3282 1162.79 53.3231V10.916L1165.96 11.3791V53.7863C1166.29 60.2036 1169.93 64.7684 1178.86 66.3562Z" fill="#9C0002"/>
<path d="M1238.36 79.0586V68.738L1242.26 69.5318V79.8524L1238.36 79.0586Z" fill="#9C0002"/>
</g>
<defs>
<clipPath id="clip0_502_508">
<rect width="1242" height="104" fill="white"/>
</clipPath>
</defs>
</svg>
