<svg width="1248" height="87" viewBox="0 0 1248 87" fill="none" xmlns="http://www.w3.org/2000/svg">
<path d="M13.7924 68.9617C3.77186 67.4417 0 62.1501 0 55.3383V30.7373C0 23.9255 3.77186 19.9284 13.7924 21.4484C25.3893 23.1936 31.1877 24.038 42.7845 25.5017C52.8051 26.8528 56.6331 31.9194 56.6331 38.7311V63.3322C56.6331 70.1439 52.8051 74.5913 42.7845 73.0713C31.1877 71.5514 25.3893 70.7632 13.7924 68.9617ZM13.7924 66.7663C25.3893 68.5114 31.1877 69.2996 42.7845 70.8196C50.7785 71.8892 54.0436 68.5114 54.0436 63.0508V38.3934C54.0436 32.7638 50.9473 28.8794 42.7845 27.8098C31.1877 26.2898 25.3893 25.5017 13.7924 23.7565C5.85479 22.518 2.53336 25.6706 2.53336 31.1876V55.845C2.75854 61.3056 5.85479 65.5278 13.7924 66.7663Z" fill="#9C0002"/>
<path d="M116.419 80.7276V56.6895C97.6163 55.2258 88.2713 54.325 69.3561 52.2421V76.2803L66.5977 75.9426V28.5418H69.3561V49.8215C88.215 51.9044 97.5037 52.805 116.419 54.325V33.0454H119.178V80.5587L116.419 80.7276Z" fill="#9C0002"/>
<path d="M129.139 81.741V72.9589H132.516V81.741H129.139Z" fill="#9C0002"/>
<path d="M224.506 60.0107H227.152V75.8297C227.152 82.5289 221.917 85.8504 211.502 85.6252L192.08 85.0059C181.666 84.6681 176.374 80.9527 176.374 74.1409V47.1191C176.374 40.3073 181.666 37.0985 192.08 37.4926C205.816 37.943 212.741 38.1682 226.477 38.3933V40.7015C212.741 40.42 205.816 40.2511 192.08 39.8007C183.467 39.463 179.189 41.9963 179.189 47.2318V74.2535C179.189 79.6015 183.467 82.4727 192.08 82.8105C199.849 82.8105 203.734 83.2044 211.502 83.3733C219.271 83.5422 224.394 81.009 224.394 75.7735L224.506 60.0107Z" fill="#9C0002"/>
<path d="M250.574 86.2444C240.553 86.2444 236.781 81.4593 236.781 74.6476V50.1027C236.781 43.2347 240.553 38.8436 250.574 38.8436H279.566C289.586 38.8436 293.414 43.3473 293.414 50.1027V74.7039C293.414 81.5157 289.586 86.2445 279.566 86.3008L250.574 86.2444ZM250.574 84.0488C262.171 84.0488 267.969 84.0488 279.566 84.0488C287.56 84.0488 290.825 80.2207 290.825 74.7601V50.1591C290.825 44.5295 287.729 40.9829 279.566 41.0392C267.969 41.0392 262.171 41.0392 250.574 41.0392C242.636 41.0392 239.315 44.5858 239.315 50.1027V74.7601C239.54 80.2207 242.636 83.9925 250.574 84.0488Z" fill="#9C0002"/>
<path d="M314.126 86.82C304.105 86.82 300.333 82.429 300.333 75.5609V50.9599C300.333 44.1482 304.105 39.7009 314.126 39.2505C325.723 39.2505 331.521 38.8 343.118 38.406C353.138 38.1245 356.967 42.6281 356.967 49.665V74.2099C356.967 81.0217 353.138 85.8631 343.118 86.2009C331.408 86.426 325.779 86.5385 314.126 86.82ZM314.126 84.5682C325.723 84.5682 331.521 84.1741 343.118 83.78C351.112 83.78 354.377 79.6706 354.377 74.2099V49.6089C354.377 43.9793 351.281 40.5453 343.118 40.7705L314.126 41.6148C306.188 41.6148 302.867 45.443 302.867 51.0162V75.6173C303.261 81.0779 306.188 84.7934 314.126 84.5682Z" fill="#9C0002"/>
<path d="M369.636 83.9928V36.4795C385.793 35.8039 393.843 35.4099 409.944 34.5655C422.385 33.9462 426.157 38.3372 426.157 47.7386V67.9486C426.157 76.8432 422.385 81.741 409.944 82.4165C393.843 82.9795 385.793 83.3735 369.636 83.9928ZM423.455 47.9074C423.455 39.8572 420.302 36.3106 409.944 36.6484C394.969 37.4365 387.426 37.8306 372.395 38.4499V81.4594C387.426 80.7839 394.913 80.4461 409.944 79.6579C420.302 79.095 423.455 75.2107 423.455 67.6108V47.9074Z" fill="#9C0002"/>
<path d="M517.639 75.1544L504.86 54.6066C492.024 55.5636 485.607 56.0139 472.715 56.8584V78.3633H469.957V30.7936C484.931 29.8366 492.475 29.33 507.393 28.2041C517.357 27.4722 521.129 31.8632 521.129 38.6749V41.7713C521.152 43.4014 520.847 45.0194 520.232 46.5293C519.617 48.0391 518.704 49.4099 517.549 50.56C516.394 51.7102 515.019 52.6164 513.506 53.2245C511.993 53.8326 510.374 54.1303 508.744 54.1H507.843L520.622 74.7041L517.639 75.1544ZM518.371 39.069C518.371 33.4395 515.274 30.1181 507.112 30.6811C493.263 31.6944 486.339 32.201 472.434 33.1017V54.5502C486.339 53.6495 493.263 53.1429 507.112 52.1296C514.993 51.5666 518.371 47.6823 518.371 42.1654V39.069Z" fill="#9C0002"/>
<path d="M529.913 74.2536V26.6841L574.949 23.1937V25.5018L532.503 28.8232V47.7949L573.092 44.586V46.8378L532.503 49.9903V71.7766C549.391 70.5381 557.948 69.8626 574.949 68.5115V70.707L529.913 74.2536Z" fill="#9C0002"/>
<path d="M641.034 65.4152L612.155 23.1937C600.445 41.94 594.59 51.3414 582.825 70.0878H579.897L611.141 20.0411H613.168L644.243 65.0774L641.034 65.4152Z" fill="#9C0002"/>
<path d="M650.156 64.6834V17.2826L690.464 14.0737C702.849 13.1167 706.62 17.5079 706.62 26.8529V46.7813C706.62 55.676 702.849 60.63 690.464 61.587L650.156 64.6834ZM703.918 26.9091C703.918 18.8588 700.766 15.65 690.464 16.213L652.915 19.1966V62.3189L690.464 59.3353C700.766 58.4908 703.918 54.5501 703.918 46.9502V26.9091Z" fill="#9C0002"/>
<path d="M716.919 59.3917V11.6532H719.678V59.1665L716.919 59.3917Z" fill="#9C0002"/>
<path d="M787.179 54.4378C765.449 38.1685 754.584 30.062 732.798 14.0178V58.2095H730.377V10.6962H732.798C754.134 26.5715 764.83 34.5093 786.166 50.6098V6.9809H788.587V54.494L787.179 54.4378Z" fill="#9C0002"/>
<path d="M846.403 25.1079H849.161V40.9269C849.161 47.6823 843.87 51.2852 833.511 51.8482C825.686 52.2985 821.802 52.4673 814.033 52.974C803.675 53.5369 798.383 50.4407 798.383 43.6289V16.6072C798.383 9.79547 803.675 6.02368 814.033 5.34814C827.825 4.56 834.693 4.16584 848.486 3.4903V5.79843C834.693 6.47397 827.825 6.86813 814.033 7.65627C805.476 8.16293 801.142 11.1465 801.142 16.382V43.4039C801.142 48.7519 805.476 51.1725 814.033 50.6658L833.511 49.5962C842.068 49.0896 846.403 46.2748 846.403 40.983V25.1079Z" fill="#9C0002"/>
<path d="M916.091 48.3015V3.26524C905.676 3.26524 900.497 3.71557 890.083 4.10963V1.8015C911.587 1.01337 922.34 0.731836 943.845 0.337769V2.6459L918.793 3.20889V48.2452L916.091 48.3015Z" fill="#9C0002"/>
<path d="M963.106 47.4008C953.141 47.4008 949.313 42.8971 949.313 36.1417V11.6532C949.313 4.84144 953.141 0.112591 963.106 0C974.702 0 980.501 0 992.154 0C1002.12 0 1006 4.72891 1006 11.5407V36.1417C1006 42.9534 1002.12 47.4008 992.154 47.4008C980.501 47.2882 974.702 47.2882 963.106 47.4008ZM963.106 45.2052C974.702 45.2052 980.501 45.2052 992.154 45.2052C1000.09 45.2052 1003.41 41.6024 1003.41 36.1417V11.6532C1003.41 6.02365 1000.32 2.42078 992.154 2.36448C980.501 2.36448 974.702 2.36448 963.106 2.36448C955.224 2.36448 951.846 6.13624 951.846 11.6532V36.3106C952.128 41.6023 955.224 45.4304 963.106 45.4304V45.2052Z" fill="#9C0002"/>
<path d="M1076.25 49.4273V28.5418C1063.87 17.2827 1057.67 11.6532 1045.35 0.394104H1048.95C1060.21 10.6399 1065.84 15.8191 1077.6 26.29C1088.86 16.945 1094.83 12.2724 1106.31 3.15252H1109.92C1097.59 13.0605 1091.4 18.0145 1079.01 28.1477V48.8643L1076.25 49.4273Z" fill="#9C0002"/>
<path d="M1126.47 52.5235C1116.45 51.7917 1112.68 46.8939 1112.68 40.0821V15.4811C1112.68 8.66935 1116.45 4.2221 1126.47 5.01023C1138.07 5.91096 1143.87 6.41751 1155.46 7.54342C1165.49 8.50044 1169.31 13.567 1169.31 20.3788V44.98C1169.31 51.7917 1165.49 56.2389 1155.46 55.0567C1143.87 53.9308 1138.07 53.4243 1126.47 52.5235ZM1126.47 50.3279C1138.07 51.2287 1143.87 51.679 1155.46 52.8049C1163.46 53.5931 1166.72 50.2154 1166.72 44.7547V20.0973C1166.72 14.4678 1163.63 10.5835 1155.46 9.79537C1143.87 8.72576 1138.07 8.21909 1126.47 7.31836C1118.53 6.69911 1115.21 10.133 1115.21 15.65V40.3074C1115.44 45.768 1118.53 49.7087 1126.47 50.3279Z" fill="#9C0002"/>
<path d="M1192.84 56.6895C1204.1 58.0406 1210.01 58.8288 1221.44 60.4614C1229.32 61.5873 1231.18 58.1532 1231.18 52.6926V16.5509L1233.99 17.0013V53.0303C1233.99 59.8421 1231.85 64.2894 1221.89 62.7131C1210.29 61.0806 1204.43 60.2925 1192.84 58.8851C1182.87 57.7029 1179.1 52.6363 1179.1 45.8245V9.96442L1181.86 10.3022V46.3875C1181.86 51.9045 1184.96 55.9014 1192.84 56.6895Z" fill="#9C0002"/>
<path d="M1243.73 66.2597V57.4777L1247.11 58.0405V66.8225L1243.73 66.2597Z" fill="#9C0002"/>
</svg>
