<svg width="273" height="51" viewBox="0 0 273 51" fill="none" xmlns="http://www.w3.org/2000/svg">
<path d="M4.43329 21.733C1.21237 21.0629 0 19.3061 0 17.0966V9.20029C0 7.00889 1.21237 5.77735 4.43329 6.39312C8.16087 7.09944 10.0247 7.40733 13.7522 7.96876C16.9732 8.43964 18.2036 10.0877 18.2036 12.2791V20.1754C18.2036 22.385 16.9732 23.7976 13.7522 23.2543C10.0247 22.6928 8.16087 22.385 4.43329 21.733ZM4.43329 21.0085C8.16087 21.7149 10.0247 22.0409 13.7522 22.5842C16.3217 22.9645 17.3712 21.896 17.3712 20.1392V12.1524C17.3712 10.3413 16.376 9.07352 13.7522 8.69319C10.0247 8.14987 8.16087 7.82387 4.43329 7.11755C1.8095 6.64667 0.886657 7.60654 0.886657 9.3814V17.3139C0.886657 19.0707 1.8095 20.4833 4.43329 20.9542V21.0085Z" fill="#9C0002"/>
<path d="M37.4204 25.6992V17.9659C31.3766 17.6037 28.3728 17.3501 22.2929 16.6438V24.3771L21.4062 24.2685V9.05539L22.2929 9.16405V15.9375C28.3547 16.6257 31.3404 16.8793 37.4204 17.2415V10.4137H38.307V25.6992H37.4204Z" fill="#9C0002"/>
<path d="M41.5103 25.9165V23.0912H42.596V25.9165H41.5103Z" fill="#9C0002"/>
<path d="M72.1631 17.6942H73.0678V22.7834C73.0678 24.9386 71.3669 26.0977 68.0193 26.1882C65.5222 26.1882 64.2736 26.2788 61.7765 26.2969C58.4289 26.2969 56.7461 25.2102 56.7461 23.0188V14.3075C56.7461 12.098 58.4289 11.0114 61.7765 10.9751C66.1917 10.9751 68.4174 10.8665 72.8326 10.7216V11.446C68.4174 11.609 66.1917 11.6633 61.7765 11.7177C59.0261 11.7177 57.6328 12.6051 57.6328 14.3075V22.9826C57.6328 24.7937 59.0261 25.5724 61.7765 25.5543L68.0193 25.4457C70.7879 25.4457 72.1631 24.4677 72.1631 22.7653V17.6942Z" fill="#9C0002"/>
<path d="M80.5412 25.663C77.3203 25.826 76.1079 24.3771 76.1079 22.1857V14.2713C76.1079 12.0799 77.3203 10.5405 80.5412 10.3775C84.2688 10.1783 86.1326 10.0696 89.8601 9.81606C93.0811 9.59873 94.3115 10.9933 94.3115 13.1847V21.0991C94.3115 23.2905 93.0811 24.8842 89.8601 25.1016C86.1326 25.3551 84.2688 25.4638 80.5412 25.663ZM80.5412 24.9386C84.2688 24.7575 86.1326 24.6488 89.8601 24.3952C92.4296 24.2141 93.4792 22.9464 93.4792 21.1896V13.2571C93.4792 11.446 92.4839 10.3775 89.8601 10.5586C86.1326 10.8122 84.2688 10.9208 80.5412 11.12C77.9898 11.2468 76.9222 12.4602 76.9222 14.2351V22.1676C76.9946 23.9244 77.9898 25.0835 80.5412 24.9386Z" fill="#9C0002"/>
<path d="M101.839 24.196C98.6181 24.4496 97.4058 23.055 97.4058 20.8636V12.9492C97.4058 10.7578 98.6181 9.16407 101.839 8.89241C105.567 8.58452 107.43 8.40341 111.176 8.05931C114.379 7.76954 115.609 9.12785 115.609 11.3374V19.2337C115.609 21.4251 114.379 23.055 111.176 23.3629L101.839 24.196ZM101.839 23.4716C105.567 23.1637 107.43 22.9826 111.176 22.6385C113.727 22.4031 114.795 21.0991 114.795 19.3423V11.4098C114.795 9.59873 113.8 8.56641 111.176 8.80185C107.43 9.14596 105.567 9.32707 101.839 9.63495C99.2876 9.85228 98.22 11.1019 98.22 12.8768V20.8093C98.2924 22.5661 99.3057 23.6889 101.839 23.544V23.4716Z" fill="#9C0002"/>
<path d="M118.812 22.6204V7.24432C124.005 6.73722 126.593 6.46556 131.768 5.92224C135.767 5.50569 136.979 6.88211 136.979 9.90661V16.2997C136.979 19.1793 135.767 20.8093 131.768 21.2259L118.812 22.6204ZM136.111 10.0696C136.111 7.47976 135.098 6.44745 131.768 6.73722C126.955 7.24432 124.53 7.49787 119.717 7.96876V21.733C124.53 21.2621 126.955 21.0085 131.768 20.5014C135.098 20.1573 136.111 18.8533 136.111 16.3903V10.0696Z" fill="#9C0002"/>
<path d="M166.475 17.821L162.276 11.283L151.999 12.2972V19.1975L151.094 19.288V4.0025C155.907 3.51351 158.332 3.27807 163.127 2.8253C166.33 2.53553 167.542 3.93006 167.542 6.12146V7.11756C167.547 7.64469 167.448 8.16757 167.25 8.65618C167.052 9.14479 166.76 9.5895 166.39 9.96477C166.02 10.34 165.58 10.6385 165.094 10.843C164.609 11.0474 164.088 11.1539 163.561 11.1563H163.272L167.379 17.7124L166.475 17.821ZM166.71 6.19391C166.71 4.38283 165.715 3.3324 163.091 3.56784C158.639 3.98439 156.414 4.20172 151.962 4.65449V11.5547C156.414 11.1019 158.639 10.8846 163.091 10.4681C165.624 10.2326 166.71 8.98297 166.71 7.20811V6.19391Z" fill="#9C0002"/>
<path d="M170.329 17.4769V2.1914C176.137 1.6843 179.05 1.46697 184.805 1.08664V1.81107C179.376 2.15518 176.626 2.37251 171.161 2.82528V8.94672C176.372 8.51207 178.978 8.31285 184.208 7.96874V8.67506C178.978 9.01917 176.372 9.2365 171.161 9.67116V16.68C176.589 16.2273 179.358 16.0099 184.805 15.6477V16.2997C179.141 16.7525 176.137 16.9879 170.329 17.4769Z" fill="#9C0002"/>
<path d="M206.048 15.4123C202.339 9.76173 200.475 6.95455 196.765 1.39454C193.002 7.24432 191.12 10.2507 187.356 16.2997H186.379C190.396 9.92472 192.405 6.75533 196.422 0.470886H197.073C201.072 6.41123 203.063 9.41762 207.062 15.4485L206.048 15.4123Z" fill="#9C0002"/>
<path d="M208.979 15.358V0C214.155 0 216.742 0 221.936 0C225.916 0 227.147 1.62997 227.147 4.65447V11.1381C227.147 13.9996 225.916 15.4304 221.936 15.358C216.742 15.2674 214.155 15.2674 208.979 15.358ZM226.278 4.6907C226.278 2.11896 225.247 0.869318 221.936 0.814986C217.104 0.814986 214.698 0.814986 209.866 0.814986V14.6154C214.698 14.6154 217.104 14.6154 221.936 14.6154C225.247 14.6154 226.278 13.5288 226.278 10.9933V4.6907Z" fill="#9C0002"/>
<path d="M230.477 15.6296V0.344116H231.363V15.6658L230.477 15.6296Z" fill="#9C0002"/>
<path d="M253.023 17.495C246.093 10.8665 242.474 7.78764 235.543 1.66619V15.9013H234.765V0.561432H235.543C242.401 6.59233 245.839 9.70738 252.697 16.1548V2.15518L253.475 2.26385V17.5494L253.023 17.495Z" fill="#9C0002"/>
<path d="M272.113 12.2791L273 12.4602V17.5313C273 19.7046 271.299 20.429 267.97 19.7951C265.472 19.3423 264.206 19.125 261.709 18.7266C258.379 18.1832 256.678 16.9155 256.678 14.6698V5.97657C256.678 3.78516 258.379 2.89773 261.709 3.42295C266.142 4.12927 268.35 4.54582 272.783 5.45136V6.1939C268.35 5.27025 266.142 4.87181 261.709 4.16549C258.958 3.73083 257.565 4.41904 257.565 6.10334V14.7965C257.565 16.5171 258.958 17.5675 261.709 18.0021C264.459 18.4368 265.472 18.6179 267.97 19.0888C270.467 19.5597 272.113 19.0888 272.113 17.2777V12.2791Z" fill="#9C0002"/>
<path d="M92.3931 51V36.5114C89.0455 36.7468 87.3808 36.8555 84.0332 37.0547V36.2216C90.9455 35.8231 94.4017 35.5696 101.314 34.9901V35.7145C98.0931 35.9861 96.4826 36.1129 93.2617 36.3484V50.837L92.3931 51Z" fill="#9C0002"/>
<path d="M107.503 49.7685C104.282 50.0582 103.069 48.6637 103.069 46.4723V38.5579C103.069 36.3665 104.282 34.7727 107.503 34.483L116.84 33.5955C120.042 33.2876 121.291 34.6459 121.291 36.8555V44.7518C121.291 46.9432 120.042 48.5731 116.84 48.881C113.094 49.2614 111.23 49.4425 107.503 49.7685ZM107.503 49.0621L116.84 48.1747C119.391 47.9212 120.459 46.6172 120.459 44.8604V36.946C120.459 35.1349 119.463 34.0845 116.84 34.3381L107.503 35.2255C104.969 35.4428 103.974 36.7106 103.974 38.4854V46.418C103.974 48.1747 104.951 49.2795 107.503 49.0621Z" fill="#9C0002"/>
<path d="M143.874 46.1101V39.4453L133.903 31.8569L135.061 31.7301L144.272 38.739L153.5 29.8285L154.658 29.7198L144.76 39.3548V46.0195L143.874 46.1101Z" fill="#9C0002"/>
<path d="M160.014 44.4982C156.793 44.788 155.617 43.4659 155.617 41.2202V33.3239C155.617 31.1324 156.83 29.5025 160.05 29.1946L169.369 28.3434C172.59 28.0717 173.821 29.4663 173.821 31.6758V39.5721C173.821 41.7635 172.59 43.3572 169.369 43.647C165.606 43.9549 163.742 44.136 160.014 44.4982ZM160.014 43.7738C163.742 43.4116 165.606 43.2486 169.333 42.9226C171.903 42.7052 172.952 41.4375 172.952 39.6626V31.7482C172.952 29.9371 171.957 28.8686 169.333 29.0859C165.606 29.4119 163.742 29.5749 160.014 29.9371C157.463 30.1726 156.395 31.4584 156.395 33.2333V41.1658C156.468 42.9226 157.427 44.0092 160.014 43.7738Z" fill="#9C0002"/>
<path d="M181.349 41.9808C184.968 41.7092 186.777 41.6005 190.523 41.4013C193.074 41.2564 193.672 40.043 193.672 38.2681V26.6591H194.576V38.2138C194.576 40.4052 193.889 41.8359 190.686 42.1076C186.958 42.3068 185.076 42.4336 181.349 42.6871C178.146 42.9226 176.916 41.528 176.916 39.3185V27.7276H177.82V39.3548C177.82 41.0391 178.816 42.1619 181.349 41.9808Z" fill="#9C0002"/>
<path d="M197.707 41.7635V38.9382H198.792V41.6548L197.707 41.7635Z" fill="#9C0002"/>
</svg>
