<svg width="265" height="19" viewBox="0 0 265 19" fill="none" xmlns="http://www.w3.org/2000/svg">
<path d="M2.93077 14.6538C0.801488 14.3308 0 13.2064 0 11.759V6.53144C0 5.08401 0.801488 4.23466 2.93077 4.55764C5.395 4.92847 6.62711 5.1079 9.09134 5.41892C11.2206 5.70602 12.0341 6.78263 12.0341 8.23007V13.4576C12.0341 14.905 11.2206 15.85 9.09134 15.5271C6.62711 15.2041 5.395 15.0366 2.93077 14.6538ZM2.93077 14.1873C5.395 14.5581 6.62711 14.7256 9.09134 15.0486C10.79 15.2759 11.4838 14.5581 11.4838 13.3978V8.1583C11.4838 6.96207 10.8259 6.13667 9.09134 5.90938C6.62711 5.5864 5.395 5.41893 2.93077 5.0481C1.24409 4.78493 0.538317 5.45482 0.538317 6.62713V11.8666C0.586166 13.027 1.24409 13.9241 2.93077 14.1873Z" fill="#9C0002"/>
<path d="M24.7381 17.1539V12.046C20.7427 11.735 18.757 11.5436 14.7376 11.101V16.2089L14.1515 16.1371V6.06488H14.7376V10.5866C18.745 11.0292 20.7188 11.2206 24.7381 11.5436V7.02185H25.3243V17.118L24.7381 17.1539Z" fill="#9C0002"/>
<path d="M27.4407 17.3692V15.5031H28.1584V17.3692H27.4407Z" fill="#9C0002"/>
<path d="M47.7056 12.7517H48.2679V16.1131C48.2679 17.5367 47.1554 18.2425 44.9424 18.1946L40.8154 18.063C38.6023 17.9912 37.4779 17.2017 37.4779 15.7543V10.0124C37.4779 8.56493 38.6023 7.88309 40.8154 7.96683C43.7342 8.06253 45.2055 8.11038 48.1243 8.15823V8.64869C45.2055 8.58888 43.7342 8.55299 40.8154 8.45729C38.9851 8.38551 38.076 8.92383 38.076 10.0363V15.7782C38.076 16.9146 38.9851 17.5247 40.8154 17.5965C42.4661 17.5965 43.2916 17.6802 44.9424 17.7161C46.5932 17.752 47.6817 17.2137 47.6817 16.1012L47.7056 12.7517Z" fill="#9C0002"/>
<path d="M53.245 18.3262C51.1157 18.3262 50.3142 17.3094 50.3142 15.862V10.6464C50.3142 9.18703 51.1157 8.25397 53.245 8.25397H59.4056C61.5348 8.25397 62.3483 9.21095 62.3483 10.6464V15.874C62.3483 17.3214 61.5348 18.3262 59.4056 18.3382L53.245 18.3262ZM53.245 17.8597C55.7092 17.8597 56.9413 17.8597 59.4056 17.8597C61.1042 17.8597 61.798 17.0462 61.798 15.8859V10.6584C61.798 9.46217 61.1401 8.70855 59.4056 8.72051C56.9413 8.72051 55.7092 8.72051 53.245 8.72051C51.5583 8.72051 50.8525 9.47412 50.8525 10.6464V15.8859C50.9004 17.0462 51.5583 17.8477 53.245 17.8597Z" fill="#9C0002"/>
<path d="M66.7495 18.4485C64.6202 18.4485 63.8187 17.5154 63.8187 16.056V10.8285C63.8187 9.38108 64.6202 8.43608 66.7495 8.34038C69.2137 8.34038 70.4458 8.24465 72.91 8.16092C75.0393 8.1011 75.8528 9.05809 75.8528 10.5534V15.7689C75.8528 17.2164 75.0393 18.2451 72.91 18.3169C70.4219 18.3648 69.2257 18.3887 66.7495 18.4485ZM66.7495 17.97C69.2137 17.97 70.4458 17.8862 72.91 17.8025C74.6087 17.8025 75.3025 16.9293 75.3025 15.7689V10.5414C75.3025 9.34521 74.6446 8.6155 72.91 8.66335L66.7495 8.84277C65.0628 8.84277 64.357 9.65623 64.357 10.8405V16.068C64.4407 17.2283 65.0628 18.0178 66.7495 17.97Z" fill="#9C0002"/>
<path d="M78.5444 17.8477V7.75155C81.9776 7.608 83.6882 7.52427 87.1094 7.34484C89.7531 7.21325 90.5546 8.14631 90.5546 10.144V14.4385C90.5546 16.3285 89.7531 17.3692 87.1094 17.5128C83.6882 17.6324 81.9776 17.7161 78.5444 17.8477ZM89.9804 10.1799C89.9804 8.46929 89.3105 7.71566 87.1094 7.78744C83.9275 7.95491 82.3245 8.03865 79.1306 8.17024V17.3094C82.3245 17.1659 83.9155 17.0941 87.1094 16.9266C89.3105 16.807 89.9804 15.9816 89.9804 14.3667V10.1799Z" fill="#9C0002"/>
<path d="M109.994 15.9697L107.279 11.6034C104.551 11.8068 103.188 11.9025 100.448 12.0819V16.6515H99.8621V6.54339C103.044 6.34003 104.647 6.23238 107.817 5.99313C109.934 5.83763 110.736 6.77067 110.736 8.2181V8.87605C110.741 9.22244 110.676 9.56625 110.545 9.88708C110.414 10.2079 110.221 10.4992 109.975 10.7436C109.73 10.988 109.437 11.1805 109.116 11.3098C108.795 11.439 108.45 11.5022 108.104 11.4958H107.913L110.628 15.874L109.994 15.9697ZM110.15 8.30185C110.15 7.10562 109.492 6.39986 107.757 6.51948C104.814 6.7348 103.343 6.84245 100.388 7.03385V11.5915C103.343 11.4001 104.814 11.2924 107.757 11.0771C109.432 10.9575 110.15 10.1321 110.15 8.95979V8.30185Z" fill="#9C0002"/>
<path d="M112.602 15.7783V5.67016L122.172 4.92847V5.41892L113.152 6.12469V10.156L121.777 9.47416V9.95264L113.152 10.6225V15.2519C116.741 14.9888 118.559 14.8452 122.172 14.5581V15.0246L112.602 15.7783Z" fill="#9C0002"/>
<path d="M136.214 13.9001L130.078 4.92843C127.59 8.91187 126.345 10.9096 123.845 14.893H123.223L129.862 4.25854H130.293L136.896 13.8284L136.214 13.9001Z" fill="#9C0002"/>
<path d="M138.152 13.7447V3.67241L146.717 2.99055C149.349 2.78719 150.15 3.72027 150.15 5.70601V9.94063C150.15 11.8307 149.349 12.8834 146.717 13.0867L138.152 13.7447ZM149.576 5.71795C149.576 4.00734 148.906 3.3255 146.717 3.44512L138.738 4.07912V13.2422L146.717 12.6082C148.906 12.4288 149.576 11.5914 149.576 9.97652V5.71795Z" fill="#9C0002"/>
<path d="M152.339 12.6202V2.4762H152.925V12.5724L152.339 12.6202Z" fill="#9C0002"/>
<path d="M167.269 11.5675C162.651 8.11043 160.343 6.38787 155.713 2.97862V12.369H155.199V2.27282H155.713C160.247 5.64618 162.52 7.33289 167.053 10.7541V1.48334H167.568V11.5795L167.269 11.5675Z" fill="#9C0002"/>
<path d="M179.854 5.33519H180.44V8.69658C180.44 10.1321 179.315 10.8976 177.114 11.0173C175.451 11.113 174.626 11.1488 172.975 11.2565C170.774 11.3761 169.65 10.7182 169.65 9.27075V3.52887C169.65 2.08143 170.774 1.27996 172.975 1.13641C175.906 0.968942 177.365 0.885186 180.296 0.741638V1.2321C177.365 1.37564 175.906 1.4594 172.975 1.62687C171.157 1.73453 170.236 2.36852 170.236 3.48101V9.22293C170.236 10.3593 171.157 10.8737 172.975 10.766L177.114 10.5387C178.932 10.4311 179.854 9.83298 179.854 8.70852V5.33519Z" fill="#9C0002"/>
<path d="M194.661 10.2637V0.693839C192.448 0.693839 191.348 0.78953 189.135 0.873266V0.382808C193.704 0.215336 195.989 0.155513 200.559 0.0717773V0.562235L195.235 0.681865V10.2517L194.661 10.2637Z" fill="#9C0002"/>
<path d="M204.652 10.0723C202.535 10.0723 201.721 9.11527 201.721 7.6798V2.4762C201.721 1.02876 202.535 0.0239246 204.652 0C207.116 0 208.348 0 210.825 0C212.942 0 213.767 1.00485 213.767 2.45229V7.6798C213.767 9.12724 212.942 10.0723 210.825 10.0723C208.348 10.0483 207.116 10.0483 204.652 10.0723ZM204.652 9.60571C207.116 9.60571 208.348 9.60571 210.825 9.60571C212.511 9.60571 213.217 8.84014 213.217 7.6798V2.4762C213.217 1.27997 212.559 0.514394 210.825 0.502432C208.348 0.502432 207.116 0.502432 204.652 0.502432C202.977 0.502432 202.26 1.3039 202.26 2.4762V7.71569C202.319 8.84014 202.977 9.65357 204.652 9.65357V9.60571Z" fill="#9C0002"/>
<path d="M228.694 10.5029V6.06488C226.062 3.67242 224.747 2.4762 222.127 0.0837402H222.892C225.285 2.26088 226.481 3.36141 228.981 5.5864C231.374 3.60066 232.642 2.60777 235.082 0.66988H235.848C233.228 2.77524 231.912 3.82793 229.28 5.98114V10.3832L228.694 10.5029Z" fill="#9C0002"/>
<path d="M239.365 11.1608C237.236 11.0053 236.435 9.96456 236.435 8.51713V3.28961C236.435 1.84218 237.236 0.897176 239.365 1.06465C241.83 1.25604 243.062 1.36368 245.526 1.60293C247.655 1.80629 248.469 2.88289 248.469 4.33033V9.55787C248.469 11.0053 247.655 11.9503 245.526 11.6991C243.062 11.4599 241.83 11.3522 239.365 11.1608ZM239.365 10.6943C241.83 10.8857 243.062 10.9814 245.526 11.2206C247.225 11.3881 247.918 10.6704 247.918 9.51002V4.27053C247.918 3.0743 247.26 2.24892 245.526 2.08145C243.062 1.85417 241.83 1.7465 239.365 1.55511C237.679 1.42352 236.973 2.1532 236.973 3.3255V8.56498C237.021 9.72533 237.679 10.5627 239.365 10.6943Z" fill="#9C0002"/>
<path d="M253.468 12.0461C255.861 12.3331 257.117 12.5006 259.545 12.8475C261.22 13.0868 261.614 12.3571 261.614 11.1967V3.51694L262.213 3.61266V11.2685C262.213 12.7159 261.758 13.661 259.641 13.326C257.176 12.9791 255.932 12.8117 253.468 12.5126C251.351 12.2614 250.549 11.1848 250.549 9.73734V2.11737L251.136 2.18914V9.85697C251.136 11.0293 251.793 11.8786 253.468 12.0461Z" fill="#9C0002"/>
<path d="M264.282 14.0796V12.2135L265 12.3331V14.1992L264.282 14.0796Z" fill="#9C0002"/>
</svg>
