<svg width="475" height="73" viewBox="0 0 475 73" fill="none" xmlns="http://www.w3.org/2000/svg">
<path d="M15.3734 66.1368C4.20422 64.1288 0 57.8539 0 50.2613V22.8403C0 15.2478 4.20422 11.1064 15.3734 13.1143C28.2996 15.436 34.7626 16.3145 47.6888 17.6322C58.858 18.7617 63.1248 23.9071 63.1248 31.7506V59.1089C63.1248 66.7014 58.858 71.6586 47.6888 70.5918C34.7626 69.3369 28.2996 68.4584 15.3734 66.1368ZM15.3734 63.6268C28.2996 65.9485 34.7626 66.8268 47.6888 68.1446C56.599 69.023 60.2384 65.0699 60.2384 58.9834V31.4996C60.2384 25.2248 56.7873 21.0834 47.6888 20.2049C34.7626 18.8872 28.2996 18.0087 15.3734 15.687C6.5259 14.1183 2.82375 17.3812 2.82375 23.5306V51.0144C3.07475 57.101 6.5259 62.0581 15.3734 63.6268Z" fill="#964E7C"/>
<path d="M129.764 72.4748V45.4931C112.29 46.403 94.7805 46.403 77.3064 45.4931V72.2865H74.2318V19.327H77.3064V43.0459C98.3271 43.8616 108.681 43.7361 129.764 43.0459V19.327H132.839V72.2865L129.764 72.4748Z" fill="#964E7C"/>
<path d="M143.941 71.7841V61.9954H147.706V71.7841H143.941Z" fill="#964E7C"/>
<path d="M252.562 44.9277C252.562 38.6528 249.174 35.2644 240.514 36.2056L211.148 39.4685C200.23 40.598 196.089 35.9546 196.089 28.4875V27.1072C196.089 19.6401 200.23 14.1182 211.148 12.926L252.939 8.40808V10.9181C236.247 12.7378 227.839 13.7417 211.148 15.4987C202.552 16.4399 199.163 20.895 199.163 26.6679V28.1739C199.163 34.4487 202.552 37.8998 211.148 36.9586L240.514 33.7585C251.433 32.5662 255.574 37.1468 255.574 44.6139V48.5671C255.574 56.0341 251.433 61.4932 240.514 62.7482C223.384 64.6306 214.788 65.5719 197.657 67.3289V64.8816C214.788 63.1246 223.384 62.1207 240.514 60.2383C249.111 59.297 252.562 54.8419 252.562 48.9436V44.9277Z" fill="#964E7C"/>
<path d="M337.274 53.9639V5.83588C324.034 25.7898 317.446 35.8923 304.206 56.0345H301.57C288.331 37.963 281.679 29.0528 268.439 11.1695V59.2975H265.553V6.33787L268.565 6.02421C282.37 24.8487 289.209 33.8845 302.951 52.7717C316.756 31.5628 323.595 21.021 337.337 0.314087H340.223V53.2737L337.274 53.9639Z" fill="#964E7C"/>
<path d="M352.077 53.3364V0.376831H355.152V53.3992L352.077 53.3364Z" fill="#964E7C"/>
<path d="M367.016 53.0223V0H370.091V50.5124C385.518 50.1384 400.953 50.5573 416.337 51.7674V54.2773C399.931 52.9733 383.467 52.5544 367.016 53.0223Z" fill="#964E7C"/>
<path d="M424.801 55.2185V2.25885C441.7 3.63515 458.477 6.23561 475 10.0397V12.6123C459.397 9.03414 443.569 6.51846 427.625 5.08251V26.2287C442.844 27.6049 457.956 29.9735 472.867 33.3193V35.8293C457.962 32.4531 442.847 30.0842 427.625 28.7387V53.0222C443.569 54.4582 459.397 56.9739 475 60.552V63.062C458.485 59.2075 441.705 56.5858 424.801 55.2185Z" fill="#964E7C"/>
</svg>
