<svg width="400" height="94" viewBox="0 0 400 94" fill="none" xmlns="http://www.w3.org/2000/svg">
<g clip-path="url(#clip0_343_424)">
<path d="M77.1539 70.7972C77.1539 62.2157 72.5246 57.1527 60.6944 56.4661C47.2146 55.8246 33.8028 54.1607 20.5744 51.4889C5.65795 48.5712 0 39.8181 0 29.6061V27.6324C0 17.163 5.65795 12.3574 20.5744 15.1892C39.3782 19.1113 58.5469 21.01 77.754 20.853V24.3714C58.5489 24.4861 39.3846 22.5878 20.5744 18.7076C8.57265 16.4765 4.2006 20.7672 4.2006 28.6622V30.7217C4.2006 39.3032 8.82983 45.8251 20.5744 47.8847C33.8241 50.603 47.268 52.2673 60.7801 52.8619C75.6965 53.8059 81.3545 60.4994 81.3545 70.6256V76.1177C81.3545 86.3297 75.6965 93.2807 60.7801 92.5083C40.949 91.818 21.268 88.7937 2.14316 83.4978V80.151C21.2642 85.4775 40.9454 88.5307 60.7801 89.2474C72.4389 90.0197 77.1539 84.3559 77.1539 76.2035V70.7972Z" fill="#964E7C"/>
<path d="M192.971 83.9268V18.0211C174.797 46.8549 165.795 60.9285 147.707 89.5048L144.106 89.9339C126.018 65.4767 116.931 53.1194 98.8428 27.3749V93.1948H94.9851V20.7672H99.1C117.874 47.4556 127.218 60.0703 145.735 85.8148C164.509 56.3803 173.854 41.4485 192.713 11.4992L197.171 10.8985V83.3261L192.971 83.9268Z" fill="#964E7C"/>
<path d="M213.116 81.1808V8.58148L217.403 8.06659V80.5801L213.116 81.1808Z" fill="#964E7C"/>
<path d="M233.519 78.5205V6.00708L237.72 5.49219V74.144C258.559 71.2924 279.534 69.5451 300.557 68.9093V72.2561C278.116 73.1497 255.738 75.2408 233.519 78.5205Z" fill="#964E7C"/>
<path d="M312.559 72.5135V1.98185e-05C335.582 -0.765712 358.612 1.28032 381.14 6.09287V9.61127C360.126 5.13459 338.668 3.09023 317.188 3.51842V32.438C337.929 32.0103 358.655 33.852 378.997 37.9301V41.3627C358.661 37.2424 337.931 35.4003 317.188 35.8706V69.0809C338.897 68.5997 360.588 70.6444 381.826 75.1738V78.6063C359.087 73.6526 335.812 71.6053 312.559 72.5135Z" fill="#964E7C"/>
<path d="M394.856 81.6099V68.6519L400 69.9391V82.8971L394.856 81.6099Z" fill="#964E7C"/>
</g>
<defs>
<clipPath id="clip0_343_424">
<rect width="400" height="93.2806" fill="white"/>
</clipPath>
</defs>
</svg>
