<svg width="16" height="26" viewBox="0 0 16 26" fill="none" xmlns="http://www.w3.org/2000/svg">
<g clip-path="url(#clip0_502_1197)">
<path d="M10.3801 12.8L15.7661 7.41399C16.0776 7.10249 16.0776 6.59699 15.7661 6.28499L14.5146 5.03349C14.2031 4.72199 13.6976 4.72199 13.3856 5.03349L8.00012 10.42L2.61412 5.03399C2.30262 4.72249 1.79712 4.72249 1.48512 5.03399L0.234114 6.28499C-0.0773868 6.59649 -0.0773868 7.10199 0.234114 7.41399L5.62012 12.8L0.234114 18.186C-0.0773868 18.4975 -0.0773868 19.003 0.234114 19.315L1.48562 20.5665C1.79712 20.878 2.30262 20.878 2.61462 20.5665L8.00012 15.18L13.3861 20.566C13.6976 20.8775 14.2031 20.8775 14.5151 20.566L15.7666 19.3145C16.0781 19.003 16.0781 18.4975 15.7666 18.1855L10.3801 12.8Z" fill="#E6D9D4"/>
</g>
<defs>
<clipPath id="clip0_502_1197">
<rect width="16" height="25.6" fill="white"/>
</clipPath>
</defs>
</svg>
